/* XPM */
static char *result[] = {
/* columns rows colors chars-per-pixel */
"16 16 103 2 ",
"   c black",
".  c #010000",
"X  c #010101",
"o  c #020000",
"O  c #030000",
"+  c #020101",
"@  c #030101",
"#  c #030202",
"$  c #040101",
"%  c #050101",
"&  c #070505",
"*  c #080606",
"=  c #090808",
"-  c #0C0808",
";  c #0C0B0B",
":  c #0E0B0B",
">  c #100D0D",
",  c #110D0D",
"<  c #100E0E",
"1  c #110F0F",
"2  c #130F0F",
"3  c #151111",
"4  c #171414",
"5  c gray9",
"6  c #1F1B1B",
"7  c #1F1C1C",
"8  c #242222",
"9  c #2F2C2C",
"0  c #322F2F",
"q  c #413E3E",
"w  c #454444",
"e  c #4C4C4C",
"r  c #524F4F",
"t  c #515050",
"y  c #525151",
"u  c #575454",
"i  c #585454",
"p  c #585555",
"a  c #595758",
"s  c #5A5858",
"d  c #5C5A5A",
"f  c #5D5A5A",
"g  c #686666",
"h  c #6F6E6E",
"j  c #716F6F",
"k  c #716F70",
"l  c #717071",
"z  c #717171",
"x  c #737272",
"c  c #757474",
"v  c #777676",
"b  c #797979",
"n  c #7E7D7E",
"m  c #807D7D",
"M  c #848383",
"N  c #8B8989",
"B  c gray54",
"V  c #8C898A",
"C  c #8F8D8D",
"Z  c gray56",
"A  c #979696",
"S  c #9B9797",
"D  c #9A9898",
"F  c #9C9B9B",
"G  c #9F9D9D",
"H  c #A09E9E",
"J  c #A2A0A0",
"K  c gray64",
"L  c #A4A2A2",
"P  c #A7A6A6",
"I  c #AAA7A7",
"U  c #A9A9A9",
"Y  c #AAA8A8",
"T  c #AAA9A9",
"R  c gray67",
"E  c #ADABAB",
"W  c #AFAFAF",
"Q  c #B0AEAE",
"!  c gray69",
"~  c #B1B1B1",
"^  c #B3B2B2",
"/  c #B4B2B2",
"(  c #B4B3B3",
")  c #B4B4B4",
"_  c gray71",
"`  c #B6B6B6",
"'  c #B7B7B7",
"]  c gray72",
"[  c #B9B9B9",
"{  c gray73",
"}  c #BEBDBD",
"|  c gray",
" . c #C0C0C0",
".. c #C1C1C1",
"X. c #C3C3C3",
"o. c gray77",
"O. c gray78",
"+. c #CACACA",
"@. c #D0D0D0",
"#. c #D2D2D2",
"$. c LightGray",
"%. c #D8D8D8",
"&. c None",
/* pixels */
"&.&.&.&.&.&.Q ( L d &.&.&.&.&.&.",
"&.&.&.Y } U z l n U ..H &.&.&.&.",
"&.&.I [ a 1 # . X ; t O./ &.&.&.",
"&.G { q @   &.&.&.&.+ 9 O.A &.&.",
"&._ j * &.&.&.&.&.&.&.& u ` &.&.",
"&.] 0 &.&.&.&.&.&.&.&.&.7 ) v &.",
"Z [ 4 &.&.&.&.&.&.&.&.&.&.K B &.",
"C +.5 &.&.&.&.&.&.&.&.&.&.^ M &.",
"f $.e &.&.&.&.&.` T &.&.&.%.g &.",
"&.| F &.&.&.&.&.2 _ E &.S @.8 &.",
"&.s #.N &.&.&.&.&.3 R H o.m = &.",
"&., x | V &.&.&.&.&.r X.^ 3 &.&.",
"&.&.- p W ! D J P  .' h ~ A &.&.",
"&.&.&.% : w h b c y < $ 6 k i &.",
"&.&.&.&.&.o o   O o . &.&.o > &.",
"&.&.&.&.&.&.&.&.&.&.&.&.&.&.&.&."
};
