/* XPM */
static char *result[] = {
/* columns rows colors chars-per-pixel */
"128 128 90 1 ",
"  c #010000",
". c #0A0101",
"X c #0D0B0B",
"o c #110707",
"O c #130C0C",
"+ c #180F0F",
"@ c #12100F",
"# c #120F10",
"$ c #151313",
"% c #1A1515",
"& c #1A1718",
"* c #1D1A1A",
"= c #221D1D",
"- c #231F20",
"; c #262222",
": c #2A2424",
"> c #292728",
", c #2D2A2A",
"< c #322D2D",
"1 c #312F30",
"2 c #353232",
"3 c #3A3535",
"4 c #3B3738",
"5 c #3D3B3B",
"6 c #433E3E",
"7 c #3F3F40",
"8 c #454242",
"9 c #4A4545",
"0 c #474848",
"q c #4C494A",
"w c #524D4D",
"e c #4F4E50",
"r c #524F50",
"t c #4F5151",
"y c #555252",
"u c #5A5555",
"i c #575758",
"p c #585658",
"a c #5D5B5B",
"s c #615D5D",
"d c #615F60",
"f c #5F6060",
"g c #646263",
"h c #6B6666",
"j c #6B6768",
"k c #676869",
"l c #6C6B6C",
"z c #716E6E",
"x c #6F6F70",
"c c #747373",
"v c #797576",
"b c #777779",
"n c #777878",
"m c #7B7B7B",
"M c #817E7E",
"N c #7F7F81",
"B c #827F80",
"V c #848384",
"C c #8A8787",
"Z c #878889",
"A c #8B8B8B",
"S c #918E8E",
"D c #8F8F90",
"F c #908F90",
"G c #8F9091",
"H c #949494",
"J c #999797",
"K c #9C9C9C",
"L c #A19F9F",
"P c #9FA0A0",
"I c #A4A4A4",
"U c #A8A7A7",
"Y c #A8A7A8",
"T c #A7A8A8",
"R c #ACACAC",
"E c #B0AEAF",
"W c #AFB0B0",
"Q c #B4B4B4",
"! c #BCBCBC",
"~ c #C0BFBF",
"^ c #C4C4C4",
"/ c #C8C7C7",
"( c #CBCBCB",
") c #D3D3D3",
"_ c #D8D7D7",
"` c #DADADA",
"' c #E4E4E4",
"] c #EBEBEB",
"[ c #F2F2F2",
"{ c None",
/* pixels */
"{{{{{{{{{{{{{{{{{{{{{{{{{{{{{{{{{{{{{{{{{{{{{{{{{{{{{{{{{{{{{{{{{{{{{{{{{{{{{{{{{{{{{{{{{{{{{{{{{{{{{{{{{{{{{{{{{{{{{{{{{{{{{{{{",
"{{{{{{{{{{{{{{{{{{{{{{{{{{{{{{{{{{{{{{{{{{{{{{{{{{{{{{{{{{{{{{{{{{{{{{{{{{{{{{{{{{{{{{{{{{{{{{{{{{{{{{{{{{{{{{{{{{{{{{{{{{{{{{{{",
"{{{{{{{{{{{{{{{{{{{{{{{{{{{{{{{{{{{{{{{{{{{{{{{{{{{{{699wwyuyuyww999{{{{{{{{{{{{{{{{{{{{{{{{{{{{{{{{{{{{{{{{{{{{{{{{{{{{{{{{{{{{",
"{{{{{{{{{{{{{{{{{{{{{{{{{{{{{{{{{{{{{{{{{{{{{{{{qwysjvCJIRWQQQQRUJSMjhuyw9{{{{{{{{{{{{{{{{{{{{{{{{{{{{{{{{{{{{{{{{{{{{{{{{{{{{{{",
"{{{{{{{{{{{{{{{{{{{{{{{{{{{{{{{{{{{{{{{{{{{{wwsvHU/_']]]']]'']''''''''!IHmpuwq{{{{{{{{{{{{{{{{{{{{{{{{{{{{{{{{{{{{{{{{{{{{{{{{{{",
"{{{{{{{{{{{{{{{{{{{{{{{{{{{{{{{{{{{{{{{{{wyzJ~_]]]'_)(^^/~^/~!WR^(/^Q!/)(A,;1uswq{{{{{{{{{{{{{{{{{{{{{{{{{{{{{{{{{{{{{{{{{{{{{{{",
"{{{{{{{{{{{{{{{{{{{{{{{{{{{{{{{{{{{{{{quzL(']]`!///!!RI!^!Q!!QKPUUJIAAHRQCias/!Ivsw9{{{{{{{{{{{{{{{{{{{{{{{{{{{{{{{{{{{{{{{{{{{{",
"{{{{{{{{{{{{{{{{{{{{{{{{{{{{{{{{{{{8wsF~]]'_/RUH!QWE!!QIQ!Q!WQGJLERQJILRRWaA((_)(/Kjyq{{{{{{{{{{{{{{{{{{{{{{{{{{{{{{{{{{{{{{{{{{",
"{{{{{{{{{{{{{{{{{{{{{{{{{{{{{{{{{8wjU`]'I/~!QW^^c!Q!!I!IQ!!WQQKUUW!RKKW~~)RH(/()))(~Hciq{{{{{{{{{{{{{{{{{{{{{{{{{{{{{{{{{{{{{{{{",
"{{{{{{{{{{{{{{{{{{{{{{{{{{{{{{{8qhE']`/Q~AW/!!!(VRJ!!TWW!!Q!RIIIUIPKHITI~^~g^(`()(^!RTKcyq{{{{{{{{{{{{{{{{{{{{{{{{{{{{{{{{{{{{{{",
"{{{{{{{{{{{{{{{{{{{{{{{{{{{{{{qsR]]`^Q~!W^mcP^WIPQIUTHGTW!R!WKKIIRQ!PWQ^/^(QJ(()((!//(QTAhw9{{{{{{{{{{{{{{{{{{{{{{{{{{{{{{{{{{{{",
"{{{{{{{{{{{{{{{{{{{{{{{{{{{{9yS']')!Q!~!~^n0tAZN/GnUTPPTTRJPRIVAmJGJQR^(^!Q/f~^/((W!!/~/!~Isq{{{{{{{{{{{{{{{{{{{{{{{{{{{{{{{{{{{",
"{{{{{{{{{{{{{{{{{{{{{{{{{{{wz/]'//!W!Q~(^AA!!!KKJa77>kGHKKmlmmxVmxNHPJUW!WQ!DG^(((((//^~^^~RVt8{{{{{{{{{{{{{{{{{{{{{{{{{{{{{{{{{",
"{{{{{{{{{{{{{{{{{{{{{{{{{8wJ]])^~^~!^^((HZ!^WWJKJJGct$>;*&$$@@$@&-,0ilNKKKW!!c~(((((///!Q!/!^Pg9{{{{{{{{{{{{{{{{{{{{{{{{{{{{{{{{",
"{{{{{{{{{{{{{{{{{{{{{{{{9s/]'/(()^~Q^)WZR^^!RWPct>&@&*2578000000772;&@$-tmIRQn!(/((^)/()/Q~!/^!nw6{{{{{{{{{{{{{{{{{{{{{{{{{{{{{{",
"{{{{{{{{{{{{{{{{{{{{{{{9v`]_/~/_(/(^^WA!QWWRm8&$&50772-@X        @&17707*$$7mKm^(/!/(^(/~!^^~(/~Jw9{{{{{{{{{{{{{{{{{{{{{{{{{{{{{",
"{{{{{{{{{{{{{{{{{{{{{{9S'])/~!/_(^//^m!QWGi*$:582&                     $278>@*1P!!~/()(((/^/(/^(/Qy9{{{{{{{{{{{{{{{{{{{{{{{{{{{{",
"{{{{{{{{{{{{{{{{{{{{69L]`/~///^))~!^mNWZ0$&57>                             >55&$0GR!^((/()(((^//))!a9{{{{{{{{{{{{{{{{{{{{{{{{{{{",
"{{{{{{{{{{{{{{{{{{{69E]_!!/(/^!!UKAxJG0$*82X                                 X38&$7GT!/((/((((((())!s9{{{{{{{{{{{{{{{{{{{{{{{{{{",
"{{{{{{{{{{{{{{{{{{69!]_^!/^/QPW!PTJKi$*51                                       25&&gTQ^/(()))))_(_(!s8{{{{{{{{{{{{{{{{{{{{{{{{{",
"{{{{{{{{{{{{{{{{{69!]`/^//^GP!!TRPb*&3,                                          .13$>AW!/~(()))_))/(^s6{{{{{{{{{{{{{{{{{{{{{{{{",
"{{{{{{{{{{{{{{{{{8E]_((/(/PR~^WPTt$>3X                                             X4;$aP!(^())))__!^)!u6{{{{{{{{{{{{{{{{{{{{{{{",
"{{{{{{{{{{{{{{{{6I](!(LUGR^~^QIH,&3*                                                 ;2$1J!~~))((_)(_)/!w6{{{{{{{{{{{{{{{{{{{{{{",
"{{{{{{{{{{{{{{{6C]`^~K!~^~/^WRV*-1.                                                   X2*-ZW~^((/))))()/U86{{{{{{{{{{{{{{{{{{{{{",
"{{{{{{{{{{{{{{6h]'/(!R!!!~~RTn&>;                                                       :>&nTQ~/)))()/(~TH56{{{{{{{{{{{{{{{{{{{{",
"{{{{{{{{{{{{{6w`](/~T/^!^~WRc$>*                                                         *:&lJ!))()//)~!!~n4{{{{{{{{{{{{{{{{{{{{",
"{{{{{{{{{{{{{6!]_!R!!^!!!QTx%>$                         {{{{{{{{{{{{{{{                   $>$cQ()(//(/!//^!u6{{{{{{{{{{{{{{{{{{{",
"{{{{{{{{{{{{4C]/WQ~^~Q!!WTn&,$                      {{{{{{{{{{{{{{{{{{{{{{{                @:&j!//(/~^~///~U66{{{{{{{{{{{{{{{{{{",
"{{{{{{{{{{{6y``!!~~!~^QWUA%:+                    {{{{{{{{{{{{{{{{{{{{{{{{{{{{{              $:%V~()((~(^^^!UM3{{{{{{{{{{{{{{{{{{",
"{{{{{{{{{{{4Q])^Q!W~/Q!TJ-:%  .               {{{{{{{{{{{{{{{{{{{{{{{{{{{{{{{{{{{            %:=K^^(//Q~(UPQQu6{{{{{{{{{{{{{{{{{",
"{{{{{{{{{{4l]_!RTWT~QUTI5==..               {{{{{{{{{{{{{{{{{{{{{{{{{{{{{{{{{{{{{{{          .%=,P~((Q(WRQ~^QS4{{{{{{{{{{{{{{{{{",
"{{{{{{{{{{4)'~^^WTR!^IIg&:o.              {{{{{{{{{{{{{{{{{{{{{{{{{{{{{{{{{{{{{{{{{{{        .o=*t!P~!HK!^!!^Qj3{{{{{{{{{{{{{{{{",
"{{{{{{{{{3M])!~Q!QQQ!JZ&:... .          {{{{{{{{{{{{{{{{{{{{{{{{{{{{{{{{{{{{{{{{{{{{{{       ...>&iU/RI!~^~!~WP55{{{{{{{{{{{{{{{",
"{{{{{{{{{4)'^^^/^QQWWI5=&....          {{{{{{{{{{{{{{{{{{{{{{{{{{{{{{{{{{{{{{{{{{{{{{{{{     ...X;*AKW!(!^~^^^Wx2{{{{{{{{{{{{{{{",
"{{{{{{{{3M'(^^~/(!^QHc&=X...         {{{{{{{{{{{{{{{{{{{{{{{{{{{{{{{{{{{{{{{{{{{{{{{{{{{{    ..o.*=qI^/~/~^^^/~P33{{{{{{{{{{{{{{",
"{{{{{{{{2(`/^Q((^!QUP>:@....        {{{{{{{{{{{{{{{{{{{{{{{{{{{{{{{{{{{{{{{{{{{{{{{{{{{{{{   ....X;&G!/!Q~/Q^(^Tg3{{{{{{{{{{{{{{",
"{{{{{{{3s]_^!^~/QWRKg**XX...       {{{{{{{{{{{{{{{{{{{{{{{{{{{{{{{{{{{{{{{{{{{{{{{{{{{{{{{{{  ...X$:4WQ/(^~^!/QTA2{{{{{{{{{{{{{{",
"{{{{{{{<T'~!Q/LKUIPG;:@X.o.       {{{{{{{{{{{{{{{{{{{{{{{{{{{{{{{{{{{{{{{{{{{{{{{{{{{{{{{{{{{ ...XX=&mW/~!Q^IKRKKw2{{{{{{{{{{{{{",
"{{{{{{36(`^QRQUQZAFi;*OX..       {{{{{{{{{{{{{{{{{{{{{{{{{{{{{{{{{{{{{{{{{{{{{{{{{{{{{{{{{{{{{ ..XX$>2U~^!RWRQZHJl2{{{{{{{{{{{{{",
"{{{{{{2c'///WQ!UUCm>;+@XX       {{{{{{{{{{{{{{{{{{{{{{{{{{{{{{{{{{{{{{{{{{{{{{{{{{{{{{{{{{{{{{{ .XXO**A!//QW!TRGAM31{{{{{{{{{{{{",
"{{{{{{<U`^(~RQ^!UHc*=OOX.      {{{{{{{{{{{{{{{{{{{{{{{{{{{{{{{{{{{{{{{{{{{{{{{{{{{{{{{{{{{{{{{{  XXO+:8Q/^RQ!~RIIHu2{{{{{{{{{{{{",
"{{{{{26)(!/WW~~(PPq:+OOX      {{{{{{{{{{{{{{{{{{{{{{{{{{{{{{{{{{{{{{{{{{{{{{{{{{{{{{{{{{{{{{{{{{ oX+O==K/QW!~(T!!Iz<{{{{{{{{{{{{",
"{{{{{2a//!(~~^/!IP>;+OO      {{{{{{{{{{{{{{{{{{{{{{{{{{{{{{{{{{{{{{{{{{{{{{{{{{{{{{{{{{{{{{{{{{{{ XOO%;k!^^^/~Q!~IA<,{{{{{{{{{{{",
"{{{{{<V)^!!!~TT!Un=*+O.     {{{{{{{{{{{{{{{{{{{{{{{{{{{{{{{{{{{{{{{{{{{{{{{{{{{{{{{{{{{{{{{{{{{{{{.OO+:2QQ^RI!!QLAH8<{{{{{{{{{{{",
"{{{{{,^_~!!!~/^RJi:%+O      {{{{{{{{{{{{{{{{{{{{{{{{{{{{{{{{{{{{{{{{{{{{{{{{{{{{{{{{{{{{{{{{{{{{{{ OO$==J!!/^QQWU!Jg<{{{{{{{{{{{",
"{{{{25(R^QK!W(QIG<;&+X     {{{{{{{{{{{{{{{{{{{{{{{{{{{{{{{{{{{{{{{{{{{{{{{{{{{{{{{{{{{{{{{{{{{{{{{{.+@%;gQR/QQTRQQUV<{{{{{{{{{{{",
"{{{{2a(WPQIHJ~QTC;=&O     {{{{{{{{{{{{{{{{{{{{{{{{{{{{{{{{{{{{{{{{{{{{{{{{{{{{{{{{{{{{{{{{{{{{{{{{{{o@&:8DJ!!QWIR!TH<;{{{{{{{{{{",
"{{{{<n)!I!PPP(RIc;*&X     {{{{{{{{{{{{{{{{{{{{{{{{{{{{{{{{{{{{{{{{{{{{{{{{{{{{{{{{{{{{{{{{{{{{{{{{{{.$$:>JK/WQTRWQRJ3:{{{{{{{{{{",
"{{{{<m!(WTRT~/QTf>%&     {{{{{{{{{{{{{{{{{{{{{{{{{{{{{{{{{{{{{{{{{{{{{{{{{{{{{{{{{{{{{{{{{{{{{{{{{{{{O%=;G!/!~RQQQQI8,{{{{{{{{{{",
"{{{{,JQ~TPQWQ!!Ty:&$     {{{{{{{{{{{{{{{{{{{{{{{{{{{{{{{{{{{{{{{{{{{{{{{{{{{{{{{{{{{{{{{{{{{{{{{{{{{{.%=>NQ!!~~Q!WRKu,{{{{{{{{{{",
"{{{{:IQR^!~W!WQP5:&X    {{{{{{{{{{{{{{{{{{{{{{{{{{{{{{{{{{{{{{{{{{{{{{{{{{{{{{{{{{{{{{{{{{{{{{{{{{{{{{%%:l!T!!WW^QIIj,{{{{{{{{{{",
"{{{<<I/!W!~!RWRH1;%.    {{{{{{{{{{{{{{{{{{{{{{{{{{{{{{{{{{{{{{{{{{{{{{{{{{{{{{{{{{{{{{{{{{{{{{{{{{{{{{+%:gQWQRTWW~QHj<{{{{{{{{{{",
"{{{<6QQ^W!!~!!PJ:;%    {{{{{{{{{{{{{{{{{{{{{{{{{{{{{{{{{{{{{{{{{{{{{{{{{{{{{{{{{{{{{{{{{{{{{{{{{{{{{{{X%:u!!RR!RUIIKn,X{{{{{{{{{",
"{{{<6///()(/((RR>;O    {{{{{{{{{{{{{{{{{{{{{{{{{{{{{{{{{{{{{{{{{{{{{{{{{{{{{{{{{{{{{{{{{{{{{{{{{{{{{{{{&:q^)!/))__/QC:X{{{{{{{{{",
"{{{<q()//((//(RT:=X    {{{{{{{{{{{{{{{{{{{{{{{{{{{{{{{{{{{{{{{{{{{{{{{{{{{{{{{{{{{{{{{{{{{{{{{{{{{{{{{{%:9^(!()(()(WA:${{{{{{{{{",
"{{{<q^/((/(/((QT;:.   {{{{{{{{{{{{{{{{{{{{{{{{{{{{{{{{{{{{{{{{{{{{{{{{{{{{{{{{{{{{{{{{{{{{{{{{{{{{{{{{{#:8^)//))))^RZ:#{{{{{{{{{",
"{{{,y//^)(/^/(!R:;    {{{{{{{{{{{{{{{{{{{{{{{{{{{{{{{{{{{{{{{{{{{{{{{{{{{{{{{{{{{{{{{{{{{{{{{{{{{{{{{{{X:8/(/)`_`(!IA:$ {{{{{{{{",
"{{{,e/(/()(//(WR:=    {{{{{{{{{{{{{{{{{{{{{{{{{{{{{{{{{{{{{{{{{{{{{{{{{{{{{{{{{{{{{{{{{{{{{{{{{{{{{{{{{{:0/)^)__)(QTV:X {{{{{{{{",
"{{{<9()/())((/!R,=   {{{{{{{{{{{{{{{{{{{{{{{{{{{{{{{{{{{{{{{{{{{{{{{{{{{{{{{{{{{{{{{{{{{{{{{{{{{{{{{{{{{:q((^))`_/~IC;O {{{{{{{{",
"{{{:4(()/))(()~P<*   {{{{{{{{{{{{{{{{{{{{{{{{{{{{{{{{{{{{{{{{{{{{{{{{{{{{{{{{{{{{{{{{{{{{{{{{{{{{{{{{{{{:i))(!)))^!Im:X {{{{{{{{",
"{{{:2/)(/()()(~I3=   {{{{{{{{{{{{{{{{{{{{{{{{{{{{{{{{{{{{{{{{{{{{{{{{{{{{{{{{{{{{{{{{{{{{{{{{{{{{{{{{{{{<j_(/^()_(!Ic:X {{{{{{{{",
"{{{::!((()))))!W9;   {{{{{{{{{{{{{{{{{{{{{{{{{{{{{{{{{{{{{{{{{{{{{{{{{{{{{{{{{{{{{{{{{{{{{{{{{{{{{{{{{{{,m__^(^__)^Rh:X  {{{{{{{",
"{{{;;Q_))))())^Wa>   {{{{{{{{{{{{{{{{{{{{{{{{{{{{{{{{{{{{{{{{{{{{{{{{{{{{{{{{{{{{{{{{{{{{{{{{{{{{{{{{{{{,H__//(`_)~Wa,X  {{{{{{{",
"{{{=:K))()))_)(Qc<.  {{{{{{{{{{{{{{{{{{{{{{{{{{{{{{{{{{{{{{{{{{{{{{{{{{{{{{{{{{{{{{{{{{{{{{{{{{{{{{{{{{{,W`_(((_`_~T0:X  {{{{{{{",
"{{{*:M))()))_)(~D<$ {{{{{{{{{{{{{{{{{{{{{{{{{{{{{{{{{{{{{{{{{6waasasaaaaaauq{{{{{{{{{{{{{{{{{{{{{{{{{{{{,(`)))/)`)!R3:X  {{{{{{{",
"{{{*:d()(())_()~R<* {{{{{{{{{{{{{{{{{{{{{{{{{{{{{{{{{{{{{{{{{3h^___````'`)Qu9{{{{{{{{{{{{{{{{{{{{{{{{{{<0``))())))QP>;.  {{{{{{{",
"{{{%:5())()_`_)~!q: {{{{{{{{{{{{{{{{{{{{{{{{{{{{{{{{{{{{{{{{{6<iQ/)__````)~Rw8{{{{{{{{{{{{{{{{{{{{{{{{{<x```)^))))WZ==.  {{{{{{{",
"{{{%;;^))())))(^!b2 {{{{{{{{{{{{{{{{{{{{{{{{{{{{{{{{{{{{{{{{{<6-yKR~Q~^^!!/~Rw8{{{{{{{{{{{{{{{{{{{{{{{{<P')))^)_)(Wl>&X  {{{{{{{",
"{{{&*;K()((__)((^L<&{{{{{{{{{{{{{{{{{{{{{{{{{{{{{{{{{{{{{{{{{::<&iIQQ^/^~^(/!Rw6{{{{{{{{{{{{{{{{{{{{{{{3/'`)(()_(!Tq:*.  {{{{{{{",
"{{{$&>l()__``)()/~8:{{{{{{{{{{{{{{{{{{{{{{{{{{{{{{{{{{{{{{{{{:=+<@iKR!~^~////^Uq6{{{{{{{{{{{{{{{{{{{{{2s''`)())`)WW,:&   {{{{{{{",
"{{{{&;7~()))`)(/)^c<.{{{{{{{{{{{{{{{{{{{{{{{{{{{{{{{{{{{{{{{{:=oo:%iJU!^!!////^Eq6{{{{{{{{{{{{{{{{{{{{2L])`))^)`)QJ*=%   {{{{{{{",
"{{{{$--W))````_((^I2={{{{{{{{{{{{{{{{{{{{{{{{{{{{{{{{{{{{{{{{:=o O:%aUQ~^!^^^^)^Uq9{{{{{{{{{{{{{{{{{{66`'```_(()/!x;%+   {{{{{{{",
"{{{{%==M^`````_()/!u<{{{{{{{{{{{{{{{{{{{{{{{{{{{{{{{{{{{{{{{{:=X .+,&gR!/~~^^^^/QKq6{{{{{{{{{{{{{{{{{3M]'`_``(_(^Q4:&O   {{{{{{{",
"{{{{%%:8/_`_)`_)_)^H2*{{{{{{{{{{{{{{{{{{{{{{{{{{{{{{{{{{{{{{{:=o. .+>&jE~~^~^/^J~(U98{{{{{{{{{{{{{{{{2)]``__`)`)!P==%X   {{{{{{{",
"{{{{%%==T)```_))__/^w2{{{{{{{{{{{{{{{{{{{{{{{{{{{{{{{{{{{{{{{{=o .. @,%lW!^^~~PP))^I96{{{{{{{{{{{{{{3c['``___(`(Qg:%%.   {{{{{{{",
"{{{{O%&;k(`_`_/()_((K3{{{{{{{{{{{{{{{{{{{{{{{{{{{{{{{{{{{{{{{{oo .. .+:&nWQ~//_((()^Lq6{{{{{{{{{{{{{3_[_`___(((~W,;&&    {{{{{{{",
"{{{{{&%;>~___`//)))(^y3{{{{{{{{{{{{{{{{{{{{{{{{{{{{{{{{{{{{{{{{.. ..  %:&bQ(//))))(//L96{{{{{{{{{{{3M['_``_`(^(!m=*&$    {{{{{{{",
"{{{{{%$*=N(_)`/())/_/I3<{{{{{{{{{{{{{{{{{{{{{{{{{{{{{{{{{{{{{{{{ .. ...+>$bW^((())())^K86{{{{{{{{{66']`_`_(`)//Q3>&$@   {{{{{{{{",
"{{{{{$&&></)__(^_(^)_/z3{{{{{{{{{{{{{{{{{{{{{{{{{{{{{{{{{{{{{{{{  . .  .$:$nW/()()())/^J66{{{{{{{{3L['__`_`_(!!A*=$&.   {{{{{{{{",
"{{{{{X$$=*Z/_)//(()__)Qq6{{{{{{{{{{{{{{{{{{{{{{{{{{{{{{{{{{{{{{{{  .. .. %>$N!^))//()/^^K98{{{{{{6g]'_`_____(!T5:$$$    {{{{{{{{",
"{{{{{{&$@:<!)_(//__)``/K55{{{{{{{{{{{{{{{{{{{{{{{{{{{{{{{{{{{{{{{{  .. ...%:$CQ/((^//()/!G66{{{{68_[!^))___)/Rm=;+$X    {{{{{{{{",
"{{{{{{O$O==z/_)/()(^(^^Qn5{{{{{{{{{{{{{{{{{{{{{{{{{{{{{{{{{{{{{{{{{   .. ..%;&CQ//^Q^/())~H86{{{5W[`(_P)__)_^U<;+@$X    {{{{{{{{",
"{{{{{{X&O+:=KT^/`)'''(')Rr6{{{{{{{{{{{{{{{{{{{{{{{{{{{{{{{{{{{{{{{{{  .  ...%:%AQ(/^~^()(^!A86{6C''`)_QA^~!TUg*=O@$    {{{{{{{{{",
"{{{{{{{$OO==y/)`]'`))^))^Qw6{{{{{{{{{{{{{{{{{{{{{{{{{{{{{{{{{{{{{{{{{  .. . .&:&ZIT!W^((^/IQM9qz['KPTP~__))^T*:++@X    {{{{{{{{{",
"{{{{{{{XOO+;&G!/``)(((((//Qq6{{{{{{{{{{{{{{{{{{{{{{{{{{{{{{{{{{{{{{{{{   .....=:*VPQ!^/~!~T^QHn'/G!)))_`_(^Q7=*OO+     {{{{{{{{{",
"{{{{{{{{++o$:>T/`_)((((()(/U98{{{{{{{{{{{{{{{{{{{{{{{{{{{{{{{{{{{{{{{{{  .. . .&>*DW^QW^!W!!!)]P0/`_))_))^Qn&:OOOo    {{{{{{{{{{",
"{{{{{{{{.+OO*=5W()/(////(((/Iq8{{{{{{{{{{{{{{{{{{{{{{{{{{{{{{{{{{{{{{{{{   ..  .&;&xW^W^(!!!IKJK^/)_)()_(!K*>@X+O.    {{{{{{{{{{",
"{{{{{{{{ +OXX>&lQ(^((/!/)//(^Uq8{{{{{{{{{{{{{{{{{{{{{{{{{{{{{{{{{{{{{{{{{ ... .. =>*AW^/(~KKGQ(___!nG!~^~R>;&XoOo     {{{{{{{{{{",
"{{{{{{{{{oOXX$>&GQ!!//^(^/^/^!Ty9{{{{{{{{{{{{{{{{{{{{{{{{{{{{{{{{{{{{{{{{{  ...  .===H!(Kb^)!^(()(_^)))WU8=;XXO+.    {{{{{{{{{{{",
"{{{{{{{{{.+XXX&:;KQ!~^!^!///)//Kzq{{{{{{{{{{{{{{{{{{{{{{{{{{{{{{{{{{{{{{{{{  . ....=:;KVm))/~^((())))/^Qp%:XXXXX     {{{{{{{{{{{",
"{{{{{{{{{{XOXXX&=>KR~^~///())K0f/Aw9{{{{{{{{{{{{{{{{{{{{{{{{{{{{{{{{{{{{{{{{  .  ...=<;y/)(/^~^/^Q)((QQk&,XoXXX     {{{{{{{{{{{{",
"{{{{{{{{{{ XXXo.;*2IGKIQKJWTPIn;/~Rsw{{{{{{{{{{{{{{{{{{{{{{{{{{{{{{{{{{{{{{{{  .... %8wQ`/)((/~/!()^~Qn*<O.XX@X     {{{{{{{{{{{{",
"{{{{{{{{{{{.XXX .<=<W(^^^^()((_!H!/!Vy9{{{{{{{{{{{{{{{{{{{{{{{{{{{{{{{{{{{{{{{   .+2wS'[_~^^^///()_~KG>3%..XXX     {{{{{{{{{{{{{",
"{{{{{{{{{{{{XXX...:&4PQ/((~///)_)K~!QJcwq{{{{{{{{{{{{{{{{{{{{{{{{{{{{{{{{{{{{{{ O<wm)['_/^/Q^^(^(!QQQWC5:..XX      {{{{{{{{{{{{{",
"{{{{{{{{{{{{ X.....,*1KW//(//!/)()QQ^HJMhwq{{{{{{{{{{{{{{{{{{{{{{{{{{{{{{{{{{{:6yv!]]`)^)WI!QTKQTRQR!/!A6;.X      {{{{{{{{{{{{{{",
"{{{{{{{{{{{{{..o....,*-AW/(/^!/)/(E!RU^/~Lvuw9{{{{{{{{{{{{{{{{{{{{{{{{{{{{{{6wuV^]]`!Q!UIITJGAKKRUW/^//^C8:X      {{{{{{{{{{{{{{",
"{{{{{{{{{{{{{{.......::&mQ!^(~()(~^^~~mW^^!WGliw8{{{{{{{{{{{{{{{{{{{{{{{{8wpcU`[]`)(!!Q!/(/QQRQ!Q^()^^QTWB8;     {{{{{{{{{{{{{{{",
"{{{{{{{{{{{{{{ ...... =,$iPW^^()(((!(^^PP~~^!RRCidiwq{{{{{{{{{{{{{{{{9wydML([]]`()(^!W!!~)(^PTPTQ/(/^~/)(^C8:   {{{{{{{{{{{{{{{{",
"{{{{{{{{{{{{{{{ ....   &2&,HUT!^~~~/!Q!!VW!Q!!(_H~LJMhgauyiywwywuuagzAP~'['~'())((^QIQ~^T!RPJGaPQ(^!/!(((^~V6:  {{{{{{{{{{{{{{{{",
"{{{{{{{{{{{{{{{{ ..     .3*&fKW!!/~!!WQ~(PH(!(Q(C~Q__)()/!QQEURQ~/)``'''`))NQ()(((^^QQWWJHKAV;$,I!^((/^()(/^M6:{{{{{{{{{{{{{{{{{",
"{{{{{{{{{{{{{{{{{ ...     >1&2ZQQ^~!Q~^QP/G0n!QH^QRWQW!(_``''`'`))_/((~/(^^!Z)()((R!^(QWKKP0$;2&1P~(((/()((/!V8,{{{{{{{{{{{{{{{{",
"{{{{{{{{{{{{{{{{{  .       $5*$qKQ!W!Q^^^!flnNNNUf5VSRQQ!^PP~!VGCSHJQT~~!WW(fQ!^)(^^~^RTTx-$4- >*,P~((~()()((^v82{{{{{{{{{{{{{{{",
"{{{{{{{{{{{{{{{{{{  .        >5&&iGJTW^/~NT~^!PRRJnl48HJPQTJZgaHHAHQWRE~!W!!Rm(^(((^QWRn>$12.   >->P~(/(())((~Wx6{{{{{{{{{{{{{{{",
"{{{{{{{{{{{{{{{{{{{           X23&&iKWQImP((Q!RR!W^WWIf6>$2aARAV!RIIIKLQ~!~^^nQ)^~!WWb>$,7$      ;->P~//^//^^^^Rc6{{{{{{{{{{{{{{",
"{{{{{{{{{{{{{{{{{{{{            X55&$0lZTW~///~TT/I~^~!RncJQ(/!WII!!!RQ!^((()AW!Q!Pf;@,7*        .>*>PQ///^^^^/^Qv8{{{{{{{{{{{{{",
"{{{{{{{{{{{{{{{{{{{{{             X28*$;fGRWWQQ!IIRRQ~!Q!PW~!!QIGJR!!IRQ((/!RWl!N5$&37&          ..>=>P!~~((/^^^!Qv8{{{{{{{{{{{{",
"{{{{{{{{{{{{{{{{{{{{{{               272$$>aGTPTWRKIRR!IKJKTWR!IJIQTRRIGPW!QPm1*$>75@              .>*>UQWWQQRRWRIUz6{{{{{{{{{{{",
"{{{{{{{{{{{{{{{{{{{{{{{{               &584$$&5fVPPPKKHZVmVJPPKHHKTTUJKZxmi1$$-77;               .. .:=,AGHGAAADVVnCw3{{{{{{{{{{",
"{{{{{{{{{{{{{{{{{{{{{{{{{                 &588,$$@-40igjmNVGHJJZZmnli7,&@$&4881                  .. ..,;&$$$$$$$$$&;<3{{{{{{{{{{",
"{{{{{{{{{{{{{{{{{{{{{{{{{{                   .;78073;&$@@$$$@@#$@@$$&:58083$                     ..  ..30808888889qys9{{{{{{{{{{",
"{{{{{{{{{{{{{{{{{{{{{{{{{{{                       X*>7807800qq0087065>$X                          . ...+o         o*=:{{{{{{{{{{",
"{{{{{{{{{{{{{{{{{{{{{{{{{{{{{                                                                     . . .+.         o&::{{{{{{{{{{",
"{{{{{{{{{{{{{{{{{{{{{{{{{{{{{{                                                                      . .O.         o*;:{{{{{{{{{{",
"{{{{{{{{{{{{{{{{{{{{{{{{{{{{{{{{                                                                    ...O.         X*=:{{{{{{{{{{",
"{{{{{{{{{{{{{{{{{{{{{{{{{{{{{{{{{{                                                           {{{{{{   XOX         o&;:{{{{{{{{{{",
"{{{{{{{{{{{{{{{{{{{{{{{{{{{{{{{{{{{{                                                       {{{{{{{{{  .o.         o&::{{{{{{{{{{",
"{{{{{{{{{{{{{{{{{{{{{{{{{{{{{{{{{{{{{{                                                   {{{{{{{{{{{{  XX         o*;={{{{{{{{{{",
"{{{{{{{{{{{{{{{{{{{{{{{{{{{{{{{{{{{{{{{{                                               {{{{{{{{{{{{{{{              .  {{{{{{{{{",
"{{{{{{{{{{{{{{{{{{{{{{{{{{{{{{{{{{{{{{{{{{{                                         {{{{{{{{{{{{{{{{{{{{               {{{{{{{{{",
"{{{{{{{{{{{{{{{{{{{{{{{{{{{{{{{{{{{{{{{{{{{{{{                                   {{{{{{{{{{{{{{{{{{{{{{{{{             {{{{{{{{{",
"{{{{{{{{{{{{{{{{{{{{{{{{{{{{{{{{{{{{{{{{{{{{{{{{{{{                          {{{{{{{{{{{{{{{{{{{{{{{{{{{{{{{{{       {{{{{{{{{{{",
"{{{{{{{{{{{{{{{{{{{{{{{{{{{{{{{{{{{{{{{{{{{{{{{{{{{{{{{{{              {{{{{{{{{{{{{{{{{{{{{{{{{{{{{{{{{{{{{{{{{{{{{{{{{{{{{{{{{",
"{{{{{{{{{{{{{{{{{{{{{{{{{{{{{{{{{{{{{{{{{{{{{{{{{{{{{{{{{{{{{{{{{{{{{{{{{{{{{{{{{{{{{{{{{{{{{{{{{{{{{{{{{{{{{{{{{{{{{{{{{{{{{{{{",
"{{{{{{{{{{{{{{{{{{{{{{{{{{{{{{{{{{{{{{{{{{{{{{{{{{{{{{{{{{{{{{{{{{{{{{{{{{{{{{{{{{{{{{{{{{{{{{{{{{{{{{{{{{{{{{{{{{{{{{{{{{{{{{{{",
"{{{{{{{{{{{{{{{{{{{{{{{{{{{{{{{{{{{{{{{{{{{{{{{{{{{{{{{{{{{{{{{{{{{{{{{{{{{{{{{{{{{{{{{{{{{{{{{{{{{{{{{{{{{{{{{{{{{{{{{{{{{{{{{{",
"{{{{{{{{{{{{{{{{{{{{{{{{{{{{{{{{{{{{{{{{{{{{{{{{{{{{{{{{{{{{{{{{{{{{{{{{{{{{{{{{{{{{{{{{{{{{{{{{{{{{{{{{{{{{{{{{{{{{{{{{{{{{{{{{",
"{{{{{{{{{{{{{{{{{{{{{{{{{{{{{{{{{{{{{{{{{{{{{{{{{{{{{{{{{{{{{{{{{{{{{{{{{{{{{{{{{{{{{{{{{{{{{{{{{{{{{{{{{{{{{{{{{{{{{{{{{{{{{{{{",
"{{{{{{{{{{{{{{{{{{{{{{{{{{{{{{{{{{{{{{{{{{{{{{{{{{{{{{{{{{{{{{{{{{{{{{{{{{{{{{{{{{{{{{{{{{{{{{{{{{{{{{{{{{{{{{{{{{{{{{{{{{{{{{{{"
};
