/* XPM */
static char *result[] = {
/* columns rows colors chars-per-pixel */
"32 32 248 2 ",
"   c black",
".  c #010000",
"X  c #010101",
"o  c #020000",
"O  c #030101",
"+  c #020202",
"@  c gray1",
"#  c #040000",
"$  c #050000",
"%  c #040101",
"&  c #040303",
"*  c #070202",
"=  c gray2",
"-  c #070707",
";  c #080000",
":  c #0A0000",
">  c #080505",
",  c #090505",
"<  c #0A0404",
"1  c #0B0404",
"2  c #0B0505",
"3  c #080707",
"4  c #0B0606",
"5  c #0C0505",
"6  c #0D0505",
"7  c #0E0505",
"8  c #0C0607",
"9  c #0B0808",
"0  c #0B0909",
"q  c #0C0808",
"w  c #0C0A0A",
"e  c #0C0B0B",
"r  c #0F0C0C",
"t  c #0E0D0D",
"y  c #0F0E0E",
"u  c #110A0A",
"i  c #110C0C",
"p  c #120E0E",
"a  c #130F0F",
"s  c #140D0D",
"d  c #170E0E",
"f  c #111010",
"g  c #131010",
"h  c #131212",
"j  c #131313",
"k  c #151111",
"l  c #141314",
"z  c #151414",
"x  c #171414",
"c  c #161515",
"v  c #191313",
"b  c #1A1515",
"n  c #191616",
"m  c #191617",
"M  c #1A1616",
"N  c #1B1616",
"B  c #1C1717",
"V  c #191818",
"C  c #1B1A1A",
"Z  c #1D1919",
"A  c #1F1C1D",
"S  c #1F1D1D",
"D  c #211B1B",
"F  c #231C1C",
"G  c #251E1E",
"H  c #222121",
"J  c #232222",
"K  c #242121",
"L  c #272222",
"P  c #262424",
"I  c #282424",
"U  c #292626",
"Y  c #2B2A2A",
"T  c #2C2929",
"R  c #2E2828",
"E  c #2D2A2B",
"W  c #2C2B2B",
"Q  c #2E2B2B",
"!  c #2F2E2E",
"~  c #312D2D",
"^  c #302E2F",
"/  c #333232",
"(  c #353131",
")  c #363030",
"_  c #353232",
"`  c #343333",
"'  c #373232",
"]  c #373333",
"[  c #353434",
"{  c #373636",
"}  c #383636",
"|  c #393939",
" . c #3B3A3B",
".. c #3D3A3A",
"X. c #3C3B3B",
"o. c #3F3C3C",
"O. c #3E3D3D",
"+. c #403D3D",
"@. c #413F40",
"#. c #464344",
"$. c #474646",
"%. c #494748",
"&. c #4A4748",
"*. c #4B4949",
"=. c #4E4B4C",
"-. c #504B4B",
";. c #514E4F",
":. c gray32",
">. c #585455",
",. c #585656",
"<. c #595757",
"1. c #5E5B5B",
"2. c #5D5C5C",
"3. c #5D5D5D",
"4. c #5F5D5D",
"5. c #5F5D5E",
"6. c #615F5F",
"7. c #626060",
"8. c #676666",
"9. c #696565",
"0. c #6A6666",
"q. c #6A6A6A",
"w. c #6F6C6C",
"e. c #6E6D6D",
"r. c #737273",
"t. c #757373",
"y. c #767373",
"u. c #747474",
"i. c #777474",
"p. c #7A7879",
"a. c #7A7979",
"s. c #7C7A7B",
"d. c #7E7B7B",
"f. c #7F7B7B",
"g. c #7E7E7E",
"h. c #7F7E7E",
"j. c #817F7F",
"k. c #818080",
"l. c #828182",
"z. c #848282",
"x. c #858383",
"c. c #868484",
"v. c #868485",
"b. c #878687",
"n. c #888686",
"m. c #8A8787",
"M. c #898989",
"N. c #8B8989",
"B. c #8C8A8A",
"V. c #8D8B8B",
"C. c #8F8C8C",
"Z. c #8E8E8E",
"A. c #8F8E8E",
"S. c #908D8D",
"D. c #918F8F",
"F. c #908F90",
"G. c gray57",
"H. c #929292",
"J. c #939393",
"K. c #949292",
"L. c #979797",
"P. c gray60",
"I. c #9A9999",
"U. c #9B9999",
"Y. c #9B999A",
"T. c #9A9A9A",
"R. c #9B9A9A",
"E. c #9B9B9B",
"W. c #9C9A9A",
"Q. c #9D9B9B",
"!. c #9C9B9C",
"~. c #9D9D9D",
"^. c #9F9D9D",
"/. c gray62",
"(. c #A09F9F",
"). c #A19F9F",
"_. c #A19FA0",
"`. c #A0A0A0",
"'. c #A2A1A1",
"]. c #A3A1A1",
"[. c gray64",
"{. c #A4A2A2",
"}. c #A4A3A3",
"|. c #A4A3A4",
" X c #A4A4A4",
".X c #A5A5A5",
"XX c #A6A5A5",
"oX c gray65",
"OX c #A7A6A6",
"+X c #A7A7A7",
"@X c #A8A6A6",
"#X c gray66",
"$X c #A9A9A9",
"%X c #AAA9A9",
"&X c #AAAAAA",
"*X c #ABAAAA",
"=X c #ADABAB",
"-X c gray68",
";X c #AEACAC",
":X c #AEADAD",
">X c #AEAEAE",
",X c #AFAFAF",
"<X c gray69",
"1X c #B1B1B1",
"2X c #B2B2B2",
"3X c gray70",
"4X c #B4B4B4",
"5X c #B5B4B4",
"6X c gray71",
"7X c #B6B5B5",
"8X c #B6B6B6",
"9X c #B7B7B7",
"0X c #B8B6B6",
"qX c gray72",
"wX c #B9B9B9",
"eX c gray73",
"rX c #BBBBBB",
"tX c #BCBCBC",
"yX c gray74",
"uX c gray",
"iX c gray75",
"pX c #C0C0C0",
"aX c #C1C1C1",
"sX c gray76",
"dX c #C3C2C2",
"fX c #C3C3C3",
"gX c gray77",
"hX c #C5C4C4",
"jX c #C5C5C5",
"kX c #C6C6C6",
"lX c #C7C6C6",
"zX c gray78",
"xX c #C8C8C8",
"cX c gray79",
"vX c #CBCBCB",
"bX c gray80",
"nX c #CDCDCD",
"mX c #CECECE",
"MX c #D0D0D0",
"NX c gray82",
"BX c #D2D2D2",
"VX c gray83",
"CX c #D5D5D5",
"ZX c gray84",
"AX c #D8D8D8",
"SX c #DADADA",
"DX c gray86",
"FX c None",
/* pixels */
"FXFXFXFXFXFXFXFXFXFXFXFXFXFXFXFXFXFXFXFXFXFXFXFXFXFXFXFXFXFXFXFX",
"FXFXFXFXFXFXFXFXFXFX{.=XhXkXxXeXuX1Xa.B.f.FXFXFXFXFXFXFXFXFXFXFX",
"FXFXFXFXFXFXFXFX;XzX.X#X X#X2X[. X>XqXaXkX'.i.FXFXFXFXFXFXFXFXFX",
"FXFXFXFXFXFXK.mXsXeX>XM.:. .| [ O.3.l.+XcXxXuXU.FXFXFXFXFXFXFXFX",
"FXFXFXFXFX].vXpX>Xr./ h =         X f J e.yXvXvX7XFXFXFXFXFXFXFX",
"FXFXFXFX).fXwX X@.e                     - ! E.nXMX5XFXFXFXFXFXFX",
"FXFXFXm.xXrX[.E +             FX            V Z.nXkXR.FXFXFXFXFX",
"FXFXFXjX6X>X( %       FXFXFXFXFXFXFXFXFX      B }.tXwXt.FXFXFXFX",
"FXFXW.fXwX4.7 o   FXFXFXFXFXFXFXFXFXFXFXFXFX  ; ~ 8XpX:XFXFXFXFX",
"FXFXgX4XF.Z *   FXFXFXFXFXFXFXFXFXFXFXFXFXFXFX$ i s.yX#X6.FXFXFX",
"FXi.fXeX8.i . FXFXFXFXFXFXFXFXFXFXFXFXFXFXFXFXFX9 ' rXqXh.FXFXFX",
"FXN.>X3Xo.>   FXFXFXFXFXFXFXFXFXFXFXFXFXFXFXFXFXFXb E.1X|.FXFXFX",
"FXA.3X1XI   FXFXFXFXFXFXFXFXFXFXFXFXFXFXFXFXFXFXFXk z.8X,X_ FXFX",
"FXXXkX9XM   FXFXFXFXFXFXFXFXFXFXFXFXFXFXFXFXFXFXFXFXj.gXuX..FXFX",
"FX%XnXuXx FXFXFXFXFXFXFXFXFXFXFXFXFXFXFXFXFXFXFXFXFXx.MXiX} FXFX",
"FX_.MXjXP FXFXFXFXFXFXFXFXFXFXFXFXFXFXFXFXFXFXFXFXFXY.bXjXT FXFX",
"FXc.NXmX;.FXFXFXFXFXFXFXFXFXFX-.XX5X}.FXFXFXFXFXFXFXeXMXeXn FXFX",
"FX>.VXBXn.FXFXFXFXFXFXFXFXFXFXF +.2XgX*XFXFXFXFXFXFXDXNXJ.a FXFX",
"FXL bXCXdX] FXFXFXFXFXFXFXFXFXv 1 #.wXuX*XFXFXFXFX].SXNX4.0 FXFX",
"FXx v.MXMXV.FXFXFXFXFXFXFXFXFXFX$ 2 &.gXmX*XFXFXFXSXAX8XK & FXFX",
"FXy R aXZXbX9.FXFXFXFXFXFXFXFXFXFX$ 5 =.tXxX'.FX0XpXnX7.p   FXFX",
"FXFXs 2.mXcXiX0.FXFXFXFXFXFXFXFXFXFX$ 5 *.eXwX1XtXbX~.N ,   FXFX",
"FXFXq g p.rXuXL.d.FXFXFXFXFXFXFXFXFXFX$ 6 1.pXkXvX>XU w   FXFXFX",
"FXFXFX4 d g.zXcXtXD.w.FXFXFXFXFXFXFXFXQ y.lXwX3XeXI.D @   FXFXFX",
"FXFXFXFX: r 5.wXfX8X4XOXN.S.FXFXC.^.@XMXbX9X3Xb.aXgX(.S FXFXFXFX",
"FXFXFXFX# . - ^ k.8X/.`.T.H.P.[.&X6XuX<XfX!.%.f <.jXbXQ.FXFXFXFX",
"FXFXFXFXFX      t Y q.G.+X-XP.,XoX$X+Xu.$.l +   8 ,.3X1Xn.FXFXFX",
"FXFXFXFXFXFXFX      = j C W { X.` H z e         # u m c A ) FXFX",
"FXFXFXFXFXFXFXFX                                  < O   9 G FXFX",
"FXFXFXFXFXFXFXFXFXFX                      FXFXFXFXFX.   & 3 FXFX",
"FXFXFXFXFXFXFXFXFXFXFXFXFXFXFXFXFXFXFXFXFXFXFXFXFXFXFXFXFXFXFXFX",
"FXFXFXFXFXFXFXFXFXFXFXFXFXFXFXFXFXFXFXFXFXFXFXFXFXFXFXFXFXFXFXFX"
};
