/* XPM */
static char *result[] = {
/* columns rows colors chars-per-pixel */
"64 64 89 1 ",
"  c #020000",
". c #0A0505",
"X c #0D0807",
"o c #0D0A0A",
"O c #110C0C",
"+ c #14100F",
"@ c #120F10",
"# c #151112",
"$ c #1A1515",
"% c #1D1A1B",
"& c #221D1D",
"* c #252222",
"= c #2A2424",
"- c #2D2728",
"; c #2E2A2A",
": c #312C2D",
"> c #322F30",
", c #353132",
"< c #393434",
"1 c #3D3B3C",
"2 c #413C3D",
"3 c #454343",
"4 c #4A4646",
"5 c #4A4748",
"6 c #4C4A4B",
"7 c #524D4D",
"8 c #504F50",
"9 c #545353",
"0 c #5A5556",
"q c #585758",
"w c #5D5B5C",
"e c #615D5D",
"r c #605F60",
"t c #636262",
"y c #696565",
"u c #676868",
"i c #6D6B6C",
"p c #726E6E",
"a c #716F70",
"s c #747272",
"d c #7B7676",
"f c #777778",
"g c #797778",
"h c #7C7B7C",
"j c #817E7E",
"k c #807F80",
"l c #848383",
"z c #898686",
"x c #878788",
"c c #8D8B8C",
"v c #918F8F",
"b c #8F8F90",
"n c #949393",
"m c #999697",
"M c #989798",
"N c #9C9B9B",
"B c #A29F9F",
"V c #A4A4A4",
"C c #A9A7A7",
"Z c #ACACAC",
"A c #B2AFAF",
"S c #AFB0B0",
"D c #B4B4B4",
"F c #B6B7B8",
"G c #B7B8B8",
"H c #BBBBBB",
"J c #C0BEBF",
"K c #BFC0BF",
"L c #C3C3C3",
"P c #C9C7C7",
"I c #C7C8C8",
"U c #CCCCCC",
"Y c #D0CFCF",
"T c #CECFD0",
"R c #CFD0D0",
"E c #D3D3D3",
"W c #D7D8D8",
"Q c #DBDCDC",
"! c #DFE0DF",
"~ c #DFDFE0",
"^ c #DFE0E0",
"/ c #E3E4E4",
"( c #E8E8E7",
") c #E7E8E8",
"_ c #EBECEC",
"` c #F2F3F3",
"' c #F7F9F9",
"] c #FDFDFD",
"[ c None",
/* pixels */
"[[[[[[[[[[[[[[[[[[[[[[[[[[[[[[[[[[[[[[[[[[[[[[[[[[[[[[[[[[[[[[[[",
"[[[[[[[[[[[[[[[[[[[[[[[[[[[[[[[[[[[[[[[[[[[[[[[[[[[[[[[[[[[[[[[[",
"[[[[[[[[[[[[[[[[[[[[[[[[[0pjzcvcdpe[[[[[[[[[[[[[[[[[[[[[[[[[[[[[",
"[[[[[[[[[[[[[[[[[[[[[yMHWQ~__`/!(WLHt=7[[[[[[[[[[[[[[[[[[[[[[[[[",
"[[[[[[[[[[[[[[[[[[0nR_^UEPDZFHBbDMnWhuEKz5[[[[[[[[[[[[[[[[[[[[[[",
"[[[[[[[[[[[[[[[[wD)^ILLNVLZSLHVVGVNLGS`()Hl4[[[[[[[[[[[[[[[[[[[[",
"[[[[[[[[[[[[[[2Z')KInrBZcnZLLHZVCDLUYmFWJLWGz2[[[[[[[[[[[[[[[[[[",
"[[[[[[[[[[[[[d_`IZIHNSSZf16fw9969acCRGNWYPPUWFe[[[[[[[[[[[[[[[[[",
"[[[[[[[[[[[-C]QPLEHCWKh95>#o#oo#$%*1rxb^QIRLGWQl:[[[[[[[[[[[[[[[",
"[[[[[[[[[[<P]ULWIFCCr>#ooo.      .ooo%>iF^WTULU_V:[[[[[[[[[[[[[[",
"[[[[[[[[[<W`HLFGGl9= o.              .o.;aR/YYUW`A:[[[[[[[[[[[[[",
"[[[[[[[[,E]GGVHLh;o.                    .o1C/EEWE(A:[[[[[[[[[[[[",
"[[[[[[[&L'CZFEUeO                        . $c~EUEE`v=[[[[[[[[[[[",
"[[[[[[[C]DSLEL6.                            XsEQUEEEs[[[[[[[[[[[",
"[[[[[[i]LDLPL5             [[[[[[[[[          d_ELHEQ6[[[[[[[[[[",
"[[[[[:/EVLLPe ...      [[[[[[[[[[[[[[[[    . ..c`UPLLZ&[[[[[[[[[",
"[[[[[N]AVHPh....     [[[[[[[[[[[[[[[[[[[[   .. $ZQZCHWg[[[[[[[[[",
"[[[[4(PLHLC* .X     [[[[[[[[[[[[[[[[[[[[[[[  XX ,DDHLUH:[[[[[[[[",
"[[[[M'HEILq Xo    [[[[[[[[[[[[[[[[[[[[[[[[[[ .XX a)LKU)g[[[[[[[[",
"[[[<EEHSHM$.O.   [[[[[[[[[[[[[[[[[[[[[[[[[[[[ .O -GEKHHB*[[[[[[[",
"[[[p`GZVB6.#.   [[[[[[[[[[[[[[[[[[[[[[[[[[[[[[ X+ i)HCMN7[[[[[[[",
"[[[N(FHUn*OX   [[[[[[[[[[[[[[[[[[[[[[[[[[[[[[[[ O.,IKLHFh[[[[[[[",
"[[,HEJLUlX#   [[[[[[[[[[[[[[[[[[[[[[[[[[[[[[[[[[.#XnWHLKn&[[[[[[",
"[[0WFDLH9Xo   [[[[[[[[[[[[[[[[[[[[[[[[[[[[[[[[[[[O.qEGDDD3[[[[[[",
"[[hEBMKS<O   [[[[[[[[[[[[[[[[[[[[[[[[[[[[[[[[[[[[ O,VLCZPe[[[[[[",
"[[lECZUV-o  [[[[[[[[[[[[[[[[[[[[[[[[[[[[[[[[[[[[[[O*VEHFLs [[[[[",
"[[cPDFHc&.  [[[[[[[[[[[[[[[[[[[[[[[[[[[[[[[[[[[[[[.&nLAZHl [[[[[",
"[OCELUPh$  [[[[[[[[[[[[[[[[[[[[[[[[[[[[[[[[[[[[[[[[#MUDLPcX[[[[[",
"[OG/YY/vO  [[[[[[[[[[[[[[[[[[[[[[[[[[[[[[[[[[[[[[[[XN(Y~)Mo[[[[[",
"[#FQUPQvo  [[[[[[[[[[[[[[[[[[[[[[[[[[[[[[[[[[[[[[[[ n/W~Ec@[[[[[",
"[oF/EYQv. [[[[[[[[[[[[[[[[[[[[[[[[[[[[[[[[[[[[[[[[[ B)EQUco[[[[[",
"[ C(UW/mo [[[[[[[[[[[[[[[[[[[[[[[[[[[[[[[[[[[[[[[[[ D/LQEl. [[[[",
"[ m`EW~D% [[[[[[[[[[[[[[[[[[[[[[[[[[[[[[[[[[[[[[[[[#P/P//h  [[[[",
"[ h`YE~U1 [[[[[[[[[[[[[[[[[[[[4nmcvnz<[[[[[[[[[[[[[,Q/UQQy  [[[[",
"[ e(YEQQt [[[[[[[[[[[[[[[[[[[[:l'`_`(v:[[[[[[[[[[[[e'EY!U7  [[[[",
"[ <U~WE/N [[[[[[[[[[[[[[[[[[[[=.qLLHP)v*[[[[[[[[[[[M]PEQD,  [[[[",
"[ $V`WWQP*[[[[[[[[[[[[[[[[[[[[=X.tRULU(n:[[[[[[[[[$Q`EE(M$. [[[[",
"[[ s'QQW)i[[[[[[[[[[[[[[[[[[[[-O Xs^PLLRl[[[[[[[[[p]WWW)p   [[[[",
"[[X<Q(EE_J$[[[[[[[[[[[[[[[[[[[## ..h^PDL`j[[[[[[[=P]WEQP<.  [[[[",
"[[O.N]YPW_s[[[[[[[[[[[[[[[[[[[[.X. .l/WWW)j[[[[[[s]W~Y/v.#  [[[[",
"[[X.5_WPR)W=[[[[[[[[[[[[[[[[[[[[.X. Oz(WUQ)a[[[[:Q'WWWT3XX  [[[[",
"[[[$ V'JIW_B.[[[[[[[[[[[[[[[[[[[[.O. Xb_TLW/s[[[A]HU~(l.$. [[[[[",
"[[[$ <E/QEE/s[[[[[[[[[[[[[[[[[[[[[.O. OnWHU~EtOc`PCH~L,X$  [[[[[",
"[[[X$ i](EUQ/y[[[[[[[[[[[[[[[[[[[[[ O. #zEJJJLnZFPE/)i $o  [[[[[",
"[[[[$OXV_PIP/Qe[[[[[[[[[[[[[[[[[[[[[.O. #MQUSCLSLLE_NOX#  [[[[[[",
"[[[[X$ =HQPIPQ^p[[[[[[[[[[[[[[[[[[[[ .X. $BZCFK_UZ!G*.$X  [[[[[[",
"[[[[[#@ 1LIFHUchC<[[[[[[[[[[[[[[[[[[[ .X  XM_EIKE(D, O#   [[[[[[",
"[[[[[.OO 2KUDLFBEG0[[[[[[[[[[[[[[[[[[[[  7L_IURPTLt  O.  [[[[[[[",
"[[[[[[OO..3U_YU)HLSbw[[[[[[[[[[[[[[[[[[6D'`KCCVSCHRt     [[[[[[[",
"[[[[[[ OX. :Z/UEIKGHRCf6[[[[[[[[[[[[4lL']UVHUCSHLUEEy   [[[[[[[[",
"[[[[[[[ OX..%dU~IILBCQ)FCCzdsiusjvNL~)]WLDDFISwV)LLQ~e [[[[[[[[[",
"[[[[[[[[ O. .O5V^IDWNrNSNVE'`/WIUW(/RcDWLKEHk1 %H`LU//e[[[[[[[[[",
"[[[[[[[[[ X. ..*tMQRBCnVctahaxklnmVFKVn^/WBr*.o *H)UTQR9[[[[[[[[",
"[[[[[[[[[[ ..  oo;riH`QHIUHstSGBZHVL^^SHnq*.X    &F/UR^Qe[[[[[[[",
"[[[[[[[[[[[ .X   o.*5icVCGRIGIRSDEGVZMt1%.o     X -CKFSKA0[[[[[[",
"[[[[[[[[[[[[  .    ooo%,8wrwtahasiq1>%@oo   .  .X.X,611<6w*[[[[[",
"[[[[[[[[[[[[[         XoooO#%####XXOX.     .    XXo$.. .@2[[[[[[",
"[[[[[[[[[[[[[[[   .           .                  XOX    .*$[[[[[",
"[[[[[[[[[[[[[[[[[         .                   [[[ o$    O:&[[[[[",
"[[[[[[[[[[[[[[[[[[[                         [[[[[[.X    X&O[[[[[",
"[[[[[[[[[[[[[[[[[[[[[                     [[[[[[[[[        [[[[[",
"[[[[[[[[[[[[[[[[[[[[[[[[[             [[[[[[[[[[[[[[[[    [[[[[[",
"[[[[[[[[[[[[[[[[[[[[[[[[[[[[[[[[[[[[[[[[[[[[[[[[[[[[[[[[[[[[[[[[",
"[[[[[[[[[[[[[[[[[[[[[[[[[[[[[[[[[[[[[[[[[[[[[[[[[[[[[[[[[[[[[[[["
};
