/* XPM */
static char *result[] = {
/* columns rows colors chars-per-pixel */
"64 64 64 1 ",
"  c #010000",
". c #0A0303",
"X c #0C0A0A",
"o c #100707",
"O c #130D0D",
"+ c #151212",
"@ c #1A1414",
"# c #1D1A1A",
"$ c #211D1D",
"% c #242222",
"& c #292525",
"* c #2A2728",
"= c #2C2A2A",
"- c #312D2E",
"; c #332F30",
": c #353233",
"> c #3A3536",
", c #3E3B3C",
"< c #413E3E",
"1 c #454242",
"2 c #4A4646",
"3 c #4C4748",
"4 c #4D4A4A",
"5 c #514C4C",
"6 c #524F50",
"7 c #555252",
"8 c #595555",
"9 c #5A5758",
"0 c #5D5A5A",
"q c #625E5E",
"w c #615F60",
"e c #656363",
"r c #696666",
"t c #6C6A6A",
"y c #716D6D",
"u c #747373",
"i c #787676",
"p c #7D7C7C",
"a c #817E7E",
"s c #7F7F80",
"d c #807F80",
"f c #858484",
"g c #8A8787",
"h c #8C8B8B",
"j c #8F8F90",
"k c #949494",
"l c #989696",
"z c #9C9B9B",
"x c #A4A4A4",
"c c #AAA7A7",
"v c #A8A7A8",
"b c #ACACAC",
"n c #B0AEAE",
"m c #B3B3B3",
"M c #B8B7B7",
"N c #B7B8B8",
"B c #BCBCBC",
"V c #C4C4C4",
"C c #CBCBCB",
"Z c #D3D3D3",
"A c #D8D7D7",
"S c #DADADA",
"D c #E3E3E3",
"F c None",
/* pixels */
"FFFFFFFFFFFFFFFFFFFFFFFFFFFFFFFFFFFFFFFFFFFFFFFFFFFFFFFFFFFFFFFF",
"FFFFFFFFFFFFFFFFFFFFFFFFF7qushhfat08FFFFFFFFFFFFFFFFFFFFFFFFFFFF",
"FFFFFFFFFFFFFFFFFFFFF0fcVASAZSZCAACBl<28FFFFFFFFFFFFFFFFFFFFFFFF",
"FFFFFFFFFFFFFFFFFF7pNSZmVNNnNNmzvxkxxrnVztFFFFFFFFFFFFFFFFFFFFFF",
"FFFFFFFFFFFFFFFF7kZAbBNVlmbbBNbxvbzbVzCZZVky5FFFFFFFFFFFFFFFFFFF",
"FFFFFFFFFFFFFF4gSZNBBtjlvzxxnvvkzxbVVBxVCMVMzrFFFFFFFFFFFFFFFFFF",
"FFFFFFFFFFFFFqVAVNBCzmmzgw,001122wszvNkVCCCVBBj6FFFFFFFFFFFFFFFF",
"FFFFFFFFFFFFaSZCCVVzNNg4:==*%%%%%*=-,tjmCVCCBVVnqFFFFFFFFFFFFFFF",
"FFFFFFFFFF1lSCVCCVhbr:*%+          X#&=<kBCCCVCVVyFFFFFFFFFFFFFF",
"FFFFFFFFF1cSVVMMxhe=%+                 $*<zVCCCZZCuFFFFFFFFFFFFF",
"FFFFFFFF<cSVVvMnj:%X                     #%tNCZZZCCtFFFFFFFFFFFF",
"FFFFFFFFlAMnmVMi&@                        X%<bVCZZAVqFFFFFFFFFFF",
"FFFFFFFuDVMBBmr%X                           #:zVZCZBn5FFFFFFFFFF",
"FFFFFF7ABBBBMr#.           FFFFFFFFFF        +;cCVVVVx<FFFFFFFFF",
"FFFFF,mCBBBmp$.         FFFFFFFFFFFFFFFF      +:MCVVBnuFFFFFFFFF",
"FFFFFtSBbmmk&O       FFFFFFFFFFFFFFFFFFFFF     $6BBbNBn3FFFFFFFF",
"FFFF>VVVBmv<O.      FFFFFFFFFFFFFFFFFFFFFFFF  ..$rbNVBBpFFFFFFFF",
"FFFFyAVVBmi#..    FFFFFFFFFFFFFFFFFFFFFFFFFFF  .O*bVBVCm1FFFFFFF",
"FFFFMVBmvx:O..   FFFFFFFFFFFFFFFFFFFFFFFFFFFFF .X@eBVBmvtFFFFFFF",
"FFF3ZVnmje#O.   FFFFFFFFFFFFFFFFFFFFFFFFFFFFFFF XO*vVmbzf:FFFFFF",
"FFFiCVmVz<@X   FFFFFFFFFFFFFFFFFFFFFFFFFFFFFFFFF.X$tBMVbv4FFFFFF",
"FFFxBVNMz%OX  FFFFFFFFFFFFFFFFFFFFFFFFFFFFFFFFFFFXO>NBNNxeFFFFFF",
"FF:VBmVmt#O   FFFFFFFFFFFFFFFFFFFFFFFFFFFFFFFFFFFXO$zBMnmg*FFFFF",
"FF5Vbzmv5#X  FFFFFFFFFFFFFFFFFFFFFFFFFFFFFFFFFFFFFO$ebMvmz-FFFFF",
"FF0BvbBn1@   FFFFFFFFFFFFFFFFFFFFFFFFFFFFFFFFFFFFFX#9BBNMv<FFFFF",
"FFtNBBmx=+  FFFFFFFFFFFFFFFFFFFFFFFFFFFFFFFFFFFFFFF@2nNnNx4FFFFF",
"FFaVBVVx&X  FFFFFFFFFFFFFFFFFFFFFFFFFFFFFFFFFFFFFFF+,VBVBn7FFFFF",
"FFgCCCCb%. FFFFFFFFFFFFFFFFFFFFFFFFFFFFFFFFFFFFFFFFX:CVCZB9XFFFF",
"FFgCCCCn%  FFFFFFFFFFFFFFFFFFFFFFFFFFFFFFFFFFFFFFFFF>CCSZn7XFFFF",
"FFfZZCCm%  FFFFFFFFFFFFFFFFFFFFFFFFFFFFFFFFFFFFFFFFF<CVACn7XFFFF",
"FFiCCZZm; FFFFFFFFFFFFFFFFFFFFFFFFFFFFFFFFFFFFFFFFFF6ZVCZm4.FFFF",
"FFrZCZZB4 FFFFFFFFFFFFFFFFFFFFFFFFFFFFFFFFFFFFFFFFFFrSCZAN,.FFFF",
"FF4ZCZAVrXFFFFFFFFFFFFFFFFFFFFFuzzzxlyFFFFFFFFFFFFFFfAZZZb*XFFFF",
"FF*CCZACj$FFFFFFFFFFFFFFFFFFFF><zVVZCMrFFFFFFFFFFFF-mACZCl%  FFF",
"FF$vZAACM-FFFFFFFFFFFFFFFFFFFF&$-kMVVCMrFFFFFFFFFFF<DACAVu$  FFF",
"FF#uZAACCqFFFFFFFFFFFFFFFFFFFF%@O*jBBVVVeFFFFFFFFFFaSACZV7#  FFF",
"FF#<ZAAZZl*FFFFFFFFFFFFFFFFFFF&@.+-xVVVNMqFFFFFFFF<CSAZZm*+ FFFF",
"FF@$bAAZZC7FFFFFFFFFFFFFFFFFFFF+..+-xBVMZBqFFFFFFFuDSAZCp$O FFFF",
"FFO$eZAVZCx-FFFFFFFFFFFFFFFFFFFF . @:vCZZCBqFFFFF<ZSSAVV,@X FFFF",
"FFF@*MAVZZZyFFFFFFFFFFFFFFFFFFFF   .@:cCCCZM0FFFFhSSAAVh#@  FFFF",
"FFF@@0ZCZCZM4FFFFFFFFFFFFFFFFFFFF . .@:nCVVZM8FFwDCVSAN>@+  FFFF",
"FFFOO%lZSSZAz1FFFFFFFFFFFFFFFFFFFF . .@>vBBCCv76ZBBNCBi$OX  FFFF",
"FFFFO@,BSZCCCz1FFFFFFFFFFFFFFFFFFFF  ..#>vBVBNmNzCZACv=OO  FFFFF",
"FFFFOO#0CVCVCCl1FFFFFFFFFFFFFFFFFFFF .. @:bBVvxMZNNCB1@+X  FFFFF",
"FFFF.OX#aMVVVCVl7FFFFFFFFFFFFFFFFFFFF  . #<vlCVCCCZB9$XX  FFFFFF",
"FFFFFXXO$gnNmBb7MtFFFFFFFFFFFFFFFFFFFF ...-qZCVVVCBt$XX.  FFFFFF",
"FFFFFFXXO%kVVCCCnVg9FFFFFFFFFFFFFFFFFFF O1cDVVVVCBv4O.X   FFFFFF",
"FFFFFF X.O%dBCVCCmvvgqFFFFFFFFFFFFFFFFF8zSZBmvzxvMVm4O   FFFFFFF",
"FFFFFFF...X%rmVCVVVxBNzi7FFFFFFFFFFFefBDSCNNCVbbBCVBn4X FFFFFFFF",
"FFFFFFFF.. .%,lBVVNNxNBCvmxlhfffhznCSVCCCBnNxzu6NVCCCM4XFFFFFFFF",
"FFFFFFFFF.   #&rmNNVNrhjxgvBCVCmmmBVVBzCCBVbk1&#1BCVCCm4FFFFFFFF",
"FFFFFFFFF     X%-rvNlVBvvluueuhsxxxmBBzVCBx9*%  #1NCCCVx5FFFFFFF",
"FFFFFFFFFF      +%-4kNBNbmVmjmVmzMmmCVnxh2*%.    $1MVVCVv6FFFFFF",
"FFFFFFFFFFFF      X%*:9ixzxzjkvxzvxljs6=*%        #2zxzzlf1FFFFF",
"FFFFFFFFFFFFF        +%*=::,14762<::=*$+        . .&-====><FFFFF",
"FFFFFFFFFFFFFF           X#%%%*%%%#.             ...X    +*FFFFF",
"FFFFFFFFFFFFFFFF                                  .X     +&FFFFF",
"FFFFFFFFFFFFFFFFF                             FFFF X.    +&FFFFF",
"FFFFFFFFFFFFFFFFFFFF                        FFFFFFF.     X@FFFFF",
"FFFFFFFFFFFFFFFFFFFFFF                   FFFFFFFFFFF       FFFFF",
"FFFFFFFFFFFFFFFFFFFFFFFFFFF          FFFFFFFFFFFFFFFFFFFFFFFFFFF",
"FFFFFFFFFFFFFFFFFFFFFFFFFFFFFFFFFFFFFFFFFFFFFFFFFFFFFFFFFFFFFFFF",
"FFFFFFFFFFFFFFFFFFFFFFFFFFFFFFFFFFFFFFFFFFFFFFFFFFFFFFFFFFFFFFFF",
"FFFFFFFFFFFFFFFFFFFFFFFFFFFFFFFFFFFFFFFFFFFFFFFFFFFFFFFFFFFFFFFF"
};
