/* XPM */
static char *result[] = {
/* columns rows colors chars-per-pixel */
"16 16 93 2 ",
"   c black",
".  c #010000",
"X  c #010101",
"o  c #050000",
"O  c #060202",
"+  c #080303",
"@  c #090606",
"#  c #0D0A0A",
"$  c #0E0B0B",
"%  c gray5",
"&  c #0E0E0E",
"*  c #111111",
"=  c #141212",
"-  c #141313",
";  c #171414",
":  c #171616",
">  c #191414",
",  c #1B1616",
"<  c #1E1A1A",
"1  c #1F1A1A",
"2  c #292626",
"3  c #312F2F",
"4  c #322E2F",
"5  c #424040",
"6  c #454445",
"7  c #4C4849",
"8  c #4F4E4F",
"9  c #525151",
"0  c #535353",
"q  c #595555",
"w  c #585858",
"e  c #5B5B5B",
"r  c #5D5A5A",
"t  c #5F5C5C",
"y  c #646262",
"u  c #656464",
"i  c #676666",
"p  c #6A6666",
"a  c DimGray",
"s  c #6F6E6E",
"d  c #717070",
"f  c #717071",
"g  c #727070",
"h  c #767676",
"j  c #787777",
"k  c #7A7878",
"l  c #7B7B7B",
"z  c #807F7F",
"x  c #828181",
"c  c #8E8C8C",
"v  c #8F8D8D",
"b  c #929090",
"n  c #939292",
"m  c #969494",
"M  c #969595",
"N  c #999898",
"B  c #9D9B9B",
"V  c #A09F9F",
"C  c gray63",
"Z  c #A2A1A1",
"A  c #A3A1A1",
"S  c #A2A2A2",
"D  c #A3A2A2",
"F  c gray65",
"G  c #A7A6A6",
"H  c #A8A6A6",
"J  c #A9A7A7",
"K  c gray66",
"L  c #A9A8A8",
"P  c #ADABAB",
"I  c #ACACAC",
"U  c #ADACAC",
"Y  c #AEADAD",
"T  c #AFAEAE",
"R  c gray69",
"E  c #B3B2B2",
"W  c gray70",
"Q  c #B5B4B4",
"!  c #B7B6B6",
"~  c gray72",
"^  c #B9B9B9",
"/  c #BAB9B9",
"(  c gray73",
")  c #BCBCBC",
"_  c #BDBCBC",
"`  c #BEBDBD",
"'  c gray",
"]  c #C0C0C0",
"[  c #C8C8C8",
"{  c #CDCDCD",
"}  c #CECECE",
"|  c gray82",
" . c None",
/* pixels */
" . . . . . .Y T D  . . . . . . .",
" . . .H _ C h f l K ' B  . . . .",
" . .J ( e * X     % w ] E  . . .",
" .B ^ 5 X    . . . .  3 ) m  . .",
" .! d O  . . . . . . .o r Q  . .",
" .~ 4  . . . . . . . . .< R j  .",
"v ~ =  . . . . . . . . . .V x  .",
"c [ -  . . . . . . . . . .T z  .",
"t | 9  . . . . .n G  . . .{ y  .",
" .` A  . . . . .> Z U  .P } 2  .",
" .q } v  . . . . ., S Z ] k @  .",
" .# g ^ N  . . . . .p ) W ;  . .",
" . .+ 0 I F n M G / ~ u L b  . .",
" . . .  & 6 i s a 8 :   1 u 7  .",
" . . . . .             . .. $  .",
" . . . . . . . . . . . . . . . ."
};
