/* XPM */
static char *result[] = {
/* columns rows colors chars-per-pixel */
"32 32 62 1 ",
"  c #000000",
". c #090606",
"X c #0D0708",
"o c #0C0A0A",
"O c #110D0E",
"+ c #151212",
"@ c #1D1A1A",
"# c #211A1A",
"$ c #262222",
"% c #292626",
"& c #2C292A",
"* c #322F30",
"= c #343333",
"- c #383333",
"; c #3D3C3C",
": c #413D3D",
"> c #454343",
", c #4C4949",
"< c #524F4F",
"1 c #545252",
"2 c #585657",
"3 c #5D5A5A",
"4 c #605E5F",
"5 c #646262",
"6 c #6A6666",
"7 c #6A6768",
"8 c #6D6C6C",
"9 c #726E6E",
"0 c #747273",
"q c #7F7D7E",
"w c #848383",
"e c #888686",
"r c #8E8C8C",
"t c #928E8E",
"y c #939292",
"u c #989696",
"i c #9C9B9C",
"p c #A19E9E",
"a c #A5A4A4",
"s c #A9A7A7",
"d c #A7A8A8",
"f c #ACABAB",
"g c #AFB0B0",
"h c #B4B3B4",
"j c #B7B8B8",
"k c #BCBCBC",
"l c #C3C3C4",
"z c #C7C8C8",
"x c #CBCCCC",
"c c #D3D4D4",
"v c #D7D8D8",
"b c #DBDCDC",
"n c #DFE0E0",
"m c #E3E4E4",
"M c #E7E8E7",
"N c #E7E8E8",
"B c #EBECEC",
"V c #EFF0EF",
"C c #EFF0F1",
"Z c #F3F3F3",
"A c #FBFCFC",
"S c None",
/* pixels */
"SSSSSSSSSSSSSSSSSSSSSSSSSSSSSSSS",
"SSSSSSSSSSS0tafspt1SSSSSSSSSSSSS",
"SSSSSSSSSakxbmNczbgjk7SSSSSSSSSS",
"SSSSSSSsNBlfq0e80ilvAvs3SSSSSSSS",
"SSSSS3cZvfw>O    o&4jBBbeSSSSSSS",
"SSSS5nbxq@          .8bZZySSSSSS",
"SSSSncc5              =xZBeSSSSS",
"SSSkcc5     SSSSSSSS   &cmc;SSSS",
"SSeBxe    SSSSSSSSSSSS  ,zckSSSS",
"SSlch$   SSSSSSSSSSSSSS  rmc,SSS",
"S7nz8   SSSSSSSSSSSSSSSS :cxwSSS",
"Sevz,  SSSSSSSSSSSSSSSSSSXuvhSSS",
"Syxf% SSSSSSSSSSSSSSSSSSS 0xk;SS",
"Sfms+ SSSSSSSSSSSSSSSSSSSS7vc,SS",
"SlZhXSSSSSSSSSSSSSSSSSSSSS4AB,SS",
"SkAjXSSSSSSSSSSSSSSSSSSSSS8Am>SS",
"SaAv%SSSSSSSSSSSppqSSSSSSStAb-SS",
"SqAV5SSSSSSSSSS#qAZySSSSSSzAl+SS",
"S>BAhSSSSSSSSSSo 5BBySSSS4AAu SS",
"S jAB2SSSSSSSSSS  7BAySSSxAm, SS",
"S <BZcSSSSSSSSSSS  0CZySrmVp  SS",
"SS yAVjSSSSSSSSSSS  4mxykmv&  SS",
"SS OfnNuSSSSSSSSSSS  1xvbx> .SSS",
"SSS +sBcl9SSSSSSSSSS-icxvi   SSS",
"SSS. +yVVzdw5SSSSS0fCNlulMu SSSS",
"SSSS   <hvzzfaddfcNNCk9.4VAaSSSS",
"SSSSS   X,rjjdpkjkli0%   7vZuSSS",
"SSSSSS     @:1342>&o     .-=1:SS",
"SSSSSSSS                 .  X#SS",
"SSSSSSSSSS            SSSS. .XSS",
"SSSSSSSSSSSSSS    SSSSSSSSSSSSSS",
"SSSSSSSSSSSSSSSSSSSSSSSSSSSSSSSS"
};
